<svg id="Layer_1" data-name="Layer 1" xmlns="http://www.w3.org/2000/svg" viewBox="0 0 100 100"><defs><style>.cls-1{isolation:isolate;}.cls-2{fill:#9c9795;}</style></defs><g id="clone" class="cls-1"><g class="cls-1"><path class="cls-2" d="M100,9.38V71.87a9.38,9.38,0,0,1-9.37,9.38H81.25v9.37A9.38,9.38,0,0,1,71.87,100H9.37A9.38,9.38,0,0,1,0,90.62V28.13a9.38,9.38,0,0,1,9.37-9.38h9.38V9.38A9.38,9.38,0,0,1,28.12,0H90.63A9.38,9.38,0,0,1,100,9.38ZM71.87,89.45v-8.2H28.12a9.38,9.38,0,0,1-9.37-9.38V28.13h-8.2A1.17,1.17,0,0,0,9.37,29.3V89.45a1.17,1.17,0,0,0,1.18,1.17H70.7A1.17,1.17,0,0,0,71.87,89.45ZM90.63,70.7V10.55a1.17,1.17,0,0,0-1.18-1.17H29.3a1.17,1.17,0,0,0-1.18,1.17V70.7a1.17,1.17,0,0,0,1.18,1.17H89.45A1.17,1.17,0,0,0,90.63,70.7Z" transform="translate(0 0)"/></g></g></svg>