<svg id="Layer_1" data-name="Layer 1" xmlns="http://www.w3.org/2000/svg" viewBox="0 0 68.75 100"><defs><style>.cls-1{isolation:isolate;}.cls-2{fill:#cfb991;}</style></defs><g id="lightbulb" class="cls-1"><g class="cls-1"><path class="cls-2" d="M84.38,34.38A34.21,34.21,0,0,1,75.87,57c-3.25,3.71-8.35,11.49-10.24,18H56.26v0a11,11,0,0,1,.43-2.79A61.73,61.73,0,0,1,68.82,50.81a25,25,0,1,0-37.64,0A61.7,61.7,0,0,1,43.33,72.23,9.49,9.49,0,0,1,43.74,75v0H34.37c-1.89-6.51-7-14.29-10.24-18A34.37,34.37,0,1,1,84.38,34.38ZM53.12,18.75A3.12,3.12,0,0,1,50,21.88a12.51,12.51,0,0,0-12.5,12.5,3.13,3.13,0,0,1-6.25,0A18.77,18.77,0,0,1,50,15.63,3.11,3.11,0,0,1,53.12,18.75ZM34.38,81.25H65.62v8.43a3.11,3.11,0,0,1-.52,1.73L60.3,98.6a3.1,3.1,0,0,1-2.6,1.4H42.3a3.1,3.1,0,0,1-2.6-1.4l-4.79-7.19a3.11,3.11,0,0,1-.52-1.73Z" transform="translate(-15.62)"/></g></g></svg>