<svg id="Layer_1" data-name="Layer 1" xmlns="http://www.w3.org/2000/svg" viewBox="0 0 100 100"><defs><style>.cls-1{isolation:isolate;}.cls-2{fill:#fff;}</style></defs><rect width="100" height="100" rx="8.55"/><g id="lightbulb" class="cls-1"><g class="cls-1"><path class="cls-2" d="M78.15,37.21a28,28,0,0,1-7,18.51c-2.66,3-6.83,9.41-8.38,14.74H55.12a8.9,8.9,0,0,1,.36-2.29,50.5,50.5,0,0,1,9.93-17.51,20.46,20.46,0,1,0-30.82,0A50.45,50.45,0,0,1,44.54,68.2a7.82,7.82,0,0,1,.34,2.25v0H37.2c-1.55-5.33-5.72-11.7-8.38-14.74A28.14,28.14,0,1,1,78.15,37.21ZM52.56,24.41A2.56,2.56,0,0,1,50,27,10.25,10.25,0,0,0,39.76,37.21a2.56,2.56,0,1,1-5.11,0A15.37,15.37,0,0,1,50,21.85,2.56,2.56,0,0,1,52.56,24.41ZM37.21,75.59H62.79v6.9a2.55,2.55,0,0,1-.43,1.42L58.44,89.8a2.58,2.58,0,0,1-2.14,1.14H43.69a2.58,2.58,0,0,1-2.13-1.14l-3.92-5.89a2.54,2.54,0,0,1-.42-1.42Z"/></g></g></svg>