<?xml version="1.0" encoding="utf-8"?>
<!-- Generator: Adobe Illustrator 25.0.0, SVG Export Plug-In . SVG Version: 6.00 Build 0)  -->
<svg version="1.1" id="Layer_1" xmlns="http://www.w3.org/2000/svg" xmlns:xlink="http://www.w3.org/1999/xlink" x="0px" y="0px"
	 viewBox="0 0 100 87.5" style="enable-background:new 0 0 100 87.5;" xml:space="preserve"><g class="color-black"><path d="M100,9.4v68.8c0,5.2-4.2,9.4-9.4,9.4H9.4c-5.2,0-9.4-4.2-9.4-9.4V9.4C0,4.2,4.2,0,9.4,0h81.2C95.8,0,100,4.2,100,9.4z
		 M90.6,76.9V10.6c0-0.6-0.5-1.2-1.2-1.2H10.6c-0.6,0-1.2,0.5-1.2,1.2v66.4c0,0.7,0.5,1.2,1.1,1.2c0,0,0,0,0,0h78.9
		C90.1,78.2,90.6,77.6,90.6,76.9C90.6,77,90.6,77,90.6,76.9L90.6,76.9z"/><rect x="37.5" y="29.7" width="43.7" height="9.4"/><rect x="20.3" y="29.7" width="9.4" height="9.4"/><rect x="37.5" y="48.4" width="43.7" height="9.4"/><rect x="20.3" y="48.4" width="9.4" height="9.4"/></g></svg>
