<svg id="Layer_1" data-name="Layer 1" xmlns="http://www.w3.org/2000/svg" viewBox="0 0 100 66.67"><defs><style>.cls-1{isolation:isolate;}.cls-2{fill:#9c9795;}</style></defs><g id="newspaper" class="cls-1"><g class="cls-1"><path class="cls-2" d="M100,21.83V80.16a4.17,4.17,0,0,1-4.17,4.17H9.72A9.73,9.73,0,0,1,0,74.6V27.38a4.17,4.17,0,0,1,4.17-4.17h7.42a8.34,8.34,0,0,1,7.85-5.55H95.83A4.17,4.17,0,0,1,100,21.83ZM9.72,76a1.39,1.39,0,0,0,1.39-1.39v-43H8.33V74.6A1.39,1.39,0,0,0,9.72,76Zm82-50H19.44V74.6a9.1,9.1,0,0,1-.1,1.39H91.67ZM27.78,53.08V36.41a2.08,2.08,0,0,1,2.08-2.08H53.47a2.08,2.08,0,0,1,2.08,2.08V53.08a2.08,2.08,0,0,1-2.08,2.08H29.86A2.08,2.08,0,0,1,27.78,53.08Zm0,8.33a2.08,2.08,0,0,1,2.08-2.08H53.47a2.08,2.08,0,0,1,2.08,2.08v4.17a2.08,2.08,0,0,1-2.08,2.08H29.86a2.08,2.08,0,0,1-2.08-2.08Zm6.94-13.2H48.61V41.27H34.72Zm26.39-11.8a2.08,2.08,0,0,1,2.08-2.08H81.25a2.08,2.08,0,0,1,2.08,2.08v4.17a2.08,2.08,0,0,1-2.08,2.08H63.19a2.08,2.08,0,0,1-2.08-2.08Zm0,12.5a2.08,2.08,0,0,1,2.08-2.08H81.25a2.08,2.08,0,0,1,2.08,2.08v4.17a2.08,2.08,0,0,1-2.08,2.08H63.19a2.08,2.08,0,0,1-2.08-2.08Zm0,12.5a2.08,2.08,0,0,1,2.08-2.08H81.25a2.08,2.08,0,0,1,2.08,2.08v4.17a2.08,2.08,0,0,1-2.08,2.08H63.19a2.08,2.08,0,0,1-2.08-2.08Z" transform="translate(0 -17.66)"/></g></g></svg>