<svg id="Layer_1" data-name="Layer 1" xmlns="http://www.w3.org/2000/svg" viewBox="0 0 100 100"><defs><style>.cls-1{fill:#fff;}.cls-2{fill:#55c0a5;}</style></defs><path class="cls-1" d="M100,89.36a10.72,10.72,0,0,1-10.71,10.72H10.71A10.72,10.72,0,0,1,0,89.36V10.79A10.71,10.71,0,0,1,10.71.08H89.29A10.71,10.71,0,0,1,100,10.79Z" transform="translate(0 -0.08)"/><path class="cls-2" d="M100,89.36a10.72,10.72,0,0,1-10.71,10.72H10.71A10.72,10.72,0,0,1,0,89.36V10.79A10.71,10.71,0,0,1,10.71.08H89.29A10.71,10.71,0,0,1,100,10.79Zm-44.63-75a5.37,5.37,0,0,0-3.8,9.15l7.14,7.14L15.07,74.29a2.69,2.69,0,0,0,0,3.79L22,85a2.68,2.68,0,0,0,3.78,0L69.43,41.36l7.14,7.14a5.36,5.36,0,0,0,9.14-3.79v-25a5.36,5.36,0,0,0-5.35-5.36Z" transform="translate(0 -0.08)"/></svg>