<?xml version="1.0" encoding="utf-8"?>
<!-- Generator: Adobe Illustrator 25.0.0, SVG Export Plug-In . SVG Version: 6.00 Build 0)  -->
<svg version="1.1" id="Layer_1" xmlns="http://www.w3.org/2000/svg" xmlns:xlink="http://www.w3.org/1999/xlink" x="0px" y="0px"
	 viewBox="0 0 100 100" style="enable-background:new 0 0 100 100;" xml:space="preserve">
<path class="color-bulma" d="M100,89.3c0,5.9-4.8,10.7-10.7,10.7H10.7C4.8,100,0,95.2,0,89.3V10.7C0,4.8,4.8,0,10.7,0h78.6
	C95.2,0,100,4.8,100,10.7V89.3z M55.4,14.3c-3,0-5.4,2.4-5.4,5.4c0,1.4,0.6,2.8,1.6,3.8l7.1,7.1L15.1,74.2c-1,1-1,2.7,0,3.8l6.9,6.9
	c1,1,2.7,1,3.8,0l43.7-43.6l7.1,7.1c2.1,2.1,5.5,2.1,7.6,0c1-1,1.6-2.4,1.6-3.8v-25c0-3-2.4-5.4-5.3-5.4L55.4,14.3z"/>
</svg>
