<svg id="Layer_1" data-name="Layer 1" xmlns="http://www.w3.org/2000/svg" viewBox="0 0 100 97.47"><defs><style>.cls-1{isolation:isolate;}.cls-2{fill:#cfb991;}</style></defs><g id="Arrow-right" class="cls-1"><g class="cls-1"><path class="cls-2" d="M47.47,2.84a5.34,5.34,0,0,1,7.57,0L98.43,46.21a5.34,5.34,0,0,1,0,7.56L55,97.16a5.34,5.34,0,0,1-7.57,0l-4.95-5a5.35,5.35,0,0,1,.09-7.65L69.5,58.93H5.36A5.35,5.35,0,0,1,0,53.57V46.43a5.35,5.35,0,0,1,5.36-5.36H69.5L42.61,15.45a5.31,5.31,0,0,1-.09-7.65Z" transform="translate(0 -1.27)"/></g></g></svg>